# xmcd
#
# Track frame offsets:
# 183
# 16103
# 30180
# 44260
# 60273
# 81763
# 93853
# 104555
# 118173
# 130858
# 147228
# 166300
# 180185
# 191905
# 213245
# 228118
# 241300
# 253580
# 272238
# 281930
#
# Disc length: 3957 seconds
#
#
# Revision: 2
# Processed by: cddbd v1.5PL3 Copyright (c) Steve Scherf et al.
# Submitted via: FreeRIP 2.11 
#
DISCID=0b0f7314
DTITLE=Various  - Country Love Songs
DYEAR=1990
DGENRE=Country
TTITLE0=Earl Thomas Conley - Angel In Disguise
TTITLE1=Forester Sisters - I Fell In Love Again Last Night
TTITLE2=George Jones - I Always Get Lucky With You
TTITLE3=Lorrie Morgan - You're Getting To Me Again
TTITLE4=Gary Morris - Wind Beneath My Wings
TTITLE5=Lee Greenwood - You've Got A Good Love Comin'
TTITLE6=Lynn Anderson - I've Never Loved Anyone More
TTITLE7=T.G. Sheppard - I Loved Em Every One
TTITLE8=Johnny Rodriguez - Love Me With All Your Heart
TTITLE9=Gene Watson - Nothing Sure Looked Good On You
TTITLE10=Freddy Fender - Secret Love
TTITLE11=Gus Hardin - All Tangled Up In Love
TTITLE12=Mel Tillis - I Believe In You
TTITLE13=Tanya Tucker - Baby I'm Yours
TTITLE14=Kieran Kane - As Long As I'm Rockin' With You
TTITLE15=Patty Loveless - It's What You Don't Do
TTITLE16=Gail Davies - It's Lovely, Lovely World
TTITLE17=Charlie Rich - Let's Take It Nice And Easy
TTITLE18=Connie Smith - Because I Love You That's Why
TTITLE19=Ed Bruce and Lynn Anderson - You're The Best Break This Old Heart Ever Had
EXTD=
EXTT0=
EXTT1=
EXTT2=
EXTT3=
EXTT4=
EXTT5=
EXTT6=
EXTT7=
EXTT8=
EXTT9=
EXTT10=
EXTT11=
EXTT12=
EXTT13=
EXTT14=
EXTT15=
EXTT16=
EXTT17=
EXTT18=
EXTT19=
PLAYORDER=
